<svg xmlns="http://www.w3.org/2000/svg" xmlns:xlink="http://www.w3.org/1999/xlink" width="59.681" height="56" viewBox="0 0 59.681 56">
  <defs>
    <clipPath id="clip-path">
      <rect id="Rectángulo_29" data-name="Rectángulo 29" width="59.681" height="56" fill="#191919" stroke="#191919" stroke-width="0.5"/>
    </clipPath>
  </defs>
  <g id="ico-flor-1" opacity="0.2">
    <g id="Grupo_53" data-name="Grupo 53" clip-path="url(#clip-path)">
      <path id="Trazado_324" data-name="Trazado 324" d="M20.8,53.45a5.245,5.245,0,0,0-2.418-2.784,19.914,19.914,0,0,1-3.893-2.609A9.713,9.713,0,0,1,12.306,44.9a25.488,25.488,0,0,1-1.07-3.422,44.232,44.232,0,0,0-3.607-9.251c-.788-1.49-1.71-3.114-3.342-3.788a15.91,15.91,0,0,0-2.747-.761c-.291-.062-.584-.116-.873-.185a1.35,1.35,0,0,0-.26-.072c-.018,0-.061-.036-.075-.033-.112.019.012.093.033.1.041,0,.174-.1.219-.127C.7,27.3.82,27.243.94,27.192q.227-.1.46-.178a10.054,10.054,0,0,1,6.911.44,15.261,15.261,0,0,1,4.128,2.327,18.055,18.055,0,0,1,2.868,2.974,43.6,43.6,0,0,1,4.839,8.408C21.614,44.3,23.094,47.5,23.5,50.984a11.115,11.115,0,0,1-.254,4.591c-.02.062-.04.125-.065.186l.123-.123c-.277.086-.521-.526-.6-.7a8.375,8.375,0,0,1-.522-1.842,18.734,18.734,0,0,1-.2-4.931A31.755,31.755,0,0,1,24.1,39.4a42.356,42.356,0,0,1,2.834-5.977,12.46,12.46,0,0,1,.767-1.253,2.668,2.668,0,0,1,1.546-.511A5.229,5.229,0,0,0,32.066,30.2a18.63,18.63,0,0,0,2.669-2.975,2.5,2.5,0,0,0,.766-1.789,2.578,2.578,0,0,0-.994-1.527,2.17,2.17,0,0,0-1.019-.546,7.009,7.009,0,0,0-1.094-.109,28.619,28.619,0,0,0-3.1.093c-.837.059-1.671.138-2.506.217a6.564,6.564,0,0,1-3.041-.45c-3.337-1.3-5.123-4.764-6-8.043a9.344,9.344,0,0,1-.292-2.545,11,11,0,0,1,.5-2.548,6.3,6.3,0,0,1,.918-1.825,7.268,7.268,0,0,1,1.311-1.493,6.861,6.861,0,0,1,4.123-1.788,16.741,16.741,0,0,1,4.917.5,12.786,12.786,0,0,1,4.1,1.778c.514.347,1.539,1.239,2.219.766.416-.29,0-.971-.161-1.287-.416-.8-.9-1.553-1.261-2.379a2.88,2.88,0,0,1-.2-2.556A2.883,2.883,0,0,1,35.855.64a21.65,21.65,0,0,1,6.17-.16,24.838,24.838,0,0,1,5.06.772,13.489,13.489,0,0,1,2.5.967,1.21,1.21,0,0,1,.366.279c.425.422.82.876,1.213,1.327,1.323,1.518,2.587,3.1,3.755,4.738a28.2,28.2,0,0,1,1.593,2.461,6.9,6.9,0,0,1,.854,2c.107.548.134,1.109.246,1.659.147.719.341,1.428.546,2.132a35.4,35.4,0,0,1,1.08,3.963,11.059,11.059,0,0,1,.032,2.414c-.06,1.143-.153,2.285-.263,3.425a54.01,54.01,0,0,1-1.123,7.5,36.356,36.356,0,0,1-1.51,4.828,17.209,17.209,0,0,1-.871,1.9,4.707,4.707,0,0,1-.848,1.214c-.278.26-.509.282-.773-.006a5.821,5.821,0,0,1-.763-1.264,11.906,11.906,0,0,0-2.264-3.313c-1.871-1.747-4.349-2.491-6.481-3.826a7.473,7.473,0,0,1-1.779-1.786c-.729-.918-1.405-1.877-2.084-2.833-.6-.844-1.189-1.694-1.823-2.512a5.394,5.394,0,0,0-2.263-1.879,2.04,2.04,0,0,0-2.269.255,19.579,19.579,0,0,0-1.544,2.065c-.957,1.332-2.734,4.067-4.713,2.965-.864-.481-.648-1.5-.375-2.272.219-.62.41-1.25.642-1.866a34.292,34.292,0,0,1,2.7-5.84,4.994,4.994,0,0,1,1.133-1.491c.5-.366.776.239.972.631a8.307,8.307,0,0,0,2.474,3.028,9.136,9.136,0,0,0,3.223,1.437,12.854,12.854,0,0,0,3.907.458,9.894,9.894,0,0,0,3.962-1.14,4.14,4.14,0,0,0,1.984-1.714c.531-1.361-2.983-.462-3.451-.357a12.189,12.189,0,0,1-2.426.4,9.968,9.968,0,0,1-2.487-.057,7.15,7.15,0,0,1-2.127-.846,3.343,3.343,0,0,1-1.053-.875A7.668,7.668,0,0,1,36.21,18.2,1.766,1.766,0,0,1,36,17.663c-.025-.226.13-.2.33-.311a17.749,17.749,0,0,0,1.765-1.2,4.9,4.9,0,0,0,.726-.68,11.15,11.15,0,0,0,.832-.935,8.774,8.774,0,0,0,.76-1.509,18.023,18.023,0,0,1,1.023-1.816,11.59,11.59,0,0,0,.674-1.4c.218-.506.425-1.016.667-1.511a2.6,2.6,0,0,1,.726-1.067c.8-.508.791,1.494.763,1.824a14.709,14.709,0,0,1-1.522,5.248,27.686,27.686,0,0,1-1.586,2.766,3.224,3.224,0,0,1-.872.981A3.416,3.416,0,0,1,38.4,18.5a.176.176,0,0,0,0,.352,3.623,3.623,0,0,0,2.246-.613,4.714,4.714,0,0,0,1.025-1.292,21.515,21.515,0,0,0,2-3.8,17.806,17.806,0,0,0,.829-3.121c.149-.838.5-2.664-.526-3.142C43,6.426,42.343,8.393,42.094,8.971a20.474,20.474,0,0,1-.881,1.927c-.417.745-.874,1.44-1.223,2.225a10,10,0,0,1-.48.981,7.782,7.782,0,0,1-1.13,1.333,8.139,8.139,0,0,1-1.185.907,9.122,9.122,0,0,1-1.136.757c-.184.1-.362.13-.413.349a1.07,1.07,0,0,0,.108.592,6.781,6.781,0,0,0,.961,1.622,4.114,4.114,0,0,0,1.343,1.067,6.531,6.531,0,0,0,2.613.853,13.792,13.792,0,0,0,1.539-.017,10.311,10.311,0,0,0,1.539-.138c.374-.065.739-.127,1.111-.213.562-.129,1.126-.254,1.7-.347a3.416,3.416,0,0,1,1.516-.064c.387.137-.161.648-.314.8a6.712,6.712,0,0,1-1.838,1.192,9.735,9.735,0,0,1-5.849.7A10.24,10.24,0,0,1,35.66,21.85a7.421,7.421,0,0,1-1.891-2.042c-.245-.386-.428-.8-.653-1.2a1.258,1.258,0,0,0-.556-.577c-.484-.2-.917.227-1.2.569A14.587,14.587,0,0,0,29.8,21.07c-.557,1.055-.992,2.194-1.444,3.3-.4.98-.714,1.984-1.086,2.972-.347.921-.654,2.148.311,2.812a2.49,2.49,0,0,0,3.1-.4,15.841,15.841,0,0,0,2.645-3.172,15.121,15.121,0,0,1,1.01-1.344,1.393,1.393,0,0,1,1.447-.405c1.427.268,2.31,1.461,3.113,2.554.9,1.225,1.755,2.482,2.66,3.7a12.266,12.266,0,0,0,2.328,2.667,12.1,12.1,0,0,0,1.788,1.009c.767.384,1.54.756,2.292,1.167a14.1,14.1,0,0,1,2.316,1.516,8.388,8.388,0,0,1,1.794,2.17c.409.684.74,1.41,1.143,2.1.206.351.492.85.937.923s.821-.354,1.067-.674a9.416,9.416,0,0,0,1.071-1.906,32.761,32.761,0,0,0,1.977-6.011,62.132,62.132,0,0,0,1.287-9.717,16.872,16.872,0,0,0,.067-3.365A42.2,42.2,0,0,0,58.237,15.8a22.275,22.275,0,0,1-.506-2.7,4.465,4.465,0,0,0-.357-1.15,18.662,18.662,0,0,0-1.847-3.134,57.9,57.9,0,0,0-4.692-5.9c-.222-.245-.444-.491-.681-.72a3.744,3.744,0,0,0-1.2-.67A15.671,15.671,0,0,0,44.669.388,36.514,36.514,0,0,0,37.28.083a6.349,6.349,0,0,0-3.11.843,2.33,2.33,0,0,0-.642,2.755,19.48,19.48,0,0,0,1.547,3.125c.079.152.4.645.267.818s-.557,0-.685-.058a5.348,5.348,0,0,1-.866-.523,12.372,12.372,0,0,0-2.264-1.3,17.063,17.063,0,0,0-2.975-.892,17.4,17.4,0,0,0-3.06-.348,8.216,8.216,0,0,0-2.929.346,7.9,7.9,0,0,0-4.045,3.2c-.206.33-.414.674-.6,1.016a6.81,6.81,0,0,0-.457,1.392,8.451,8.451,0,0,0-.323,3.268,13.378,13.378,0,0,0,.8,3.1,12.728,12.728,0,0,0,1.4,2.9A12.079,12.079,0,0,0,21.5,22.222a7.5,7.5,0,0,0,2.528,1.369,6.34,6.34,0,0,0,2.358.36c.384-.024.768-.072,1.151-.108,1.289-.12,2.583-.225,3.878-.246a11.458,11.458,0,0,1,1.772.07,2.457,2.457,0,0,1,1.646,1.09,1.367,1.367,0,0,1,.256,1.282,6.283,6.283,0,0,1-1.067,1.538,18.6,18.6,0,0,1-1.808,2.011A6.662,6.662,0,0,1,29.8,31.2c-.566.181-1.156.169-1.737.373a1.275,1.275,0,0,0-.7.467c-.16.234-.306.478-.451.721-.606,1.012-1.158,2.057-1.671,3.118a37.028,37.028,0,0,0-3.388,10.4,21.48,21.48,0,0,0-.13,6.192A10.149,10.149,0,0,0,22.348,55c.145.346.388.923.818,1s.477-.5.546-.8a11.294,11.294,0,0,0,.241-2.778c-.1-3.84-1.633-7.368-3.213-10.8a42.121,42.121,0,0,0-5.772-9.828,15.756,15.756,0,0,0-8.89-5.351,9.551,9.551,0,0,0-3.85-.017,7.835,7.835,0,0,0-1.3.4c-.251.1-.931.28-.93.636,0,.381.789.427,1.027.476.767.159,1.529.336,2.282.552a4.829,4.829,0,0,1,2,1.009A10.889,10.889,0,0,1,7.429,32.6a41.637,41.637,0,0,1,2.617,6.072c.917,2.766,1.268,5.9,3.034,8.3a12.271,12.271,0,0,0,4.038,3.382,13.8,13.8,0,0,1,1.933,1.184,4.4,4.4,0,0,1,1.409,2c.076.212.416.121.34-.093" transform="translate(0 0)" fill="#191919" stroke="#191919" stroke-width="0.5"/>
    </g>
  </g>
</svg>
