<svg xmlns="http://www.w3.org/2000/svg" xmlns:xlink="http://www.w3.org/1999/xlink" width="49.336" height="56" viewBox="0 0 49.336 56">
  <defs>
    <clipPath id="clip-path">
      <rect id="Rectángulo_26" data-name="Rectángulo 26" width="49.336" height="56" fill="#191919" stroke="#191919" stroke-width="0.5"/>
    </clipPath>
  </defs>
  <g id="ico-flor-2" opacity="0.2">
    <g id="Grupo_47" data-name="Grupo 47" clip-path="url(#clip-path)">
      <path id="Trazado_321" data-name="Trazado 321" d="M34.407,29.146c-2.067,1.4-3.024,3.8-4.071,5.964a23.75,23.75,0,0,1-6.186,8.31,6.117,6.117,0,0,1-2.971,1.544,6.274,6.274,0,0,1-1.417-.155.86.86,0,0,0-.882.578,6.618,6.618,0,0,0-.418,1.175,24.9,24.9,0,0,1-.779,2.393,27.846,27.846,0,0,1-3.865,6.751l.265.2A8.675,8.675,0,0,0,14.82,51.2a21.116,21.116,0,0,0-1.369-6.343,17.287,17.287,0,0,0-1.43-2.933,28.576,28.576,0,0,0-1.807-2.489C8.777,37.59,7.256,35.812,5.669,34.1a37.808,37.808,0,0,0-4.158-4.022c-.242-.192-.488-.378-.748-.545-.1-.061-.193-.12-.293-.174-.026-.014-.115-.078-.143-.073-.117.02-.046.13.019.152a1.791,1.791,0,0,0,.344-.013,3.426,3.426,0,0,1,.575.084,4.662,4.662,0,0,1,1.343.534,8.221,8.221,0,0,1,1.292,1.1,6.831,6.831,0,0,0,.99.727c.919.569,1.909,1.018,2.868,1.515a15.828,15.828,0,0,1,5.736,4.391,17.592,17.592,0,0,1,2.616,5.443,11.231,11.231,0,0,1,.609,4.537,2.141,2.141,0,0,1-.172.639h.292a7.222,7.222,0,0,1-1.073-4.29,8.8,8.8,0,0,1,.762-2.366c.332-.793.69-1.576,1.043-2.36a23.087,23.087,0,0,0,1.551-4.16,17.67,17.67,0,0,0,.556-4.854c-.049-.985-.19-1.951-.182-2.942,0-.568.024-1.14.077-1.706l-.254.146a5.1,5.1,0,0,0,1.938.776,17.984,17.984,0,0,0,2.867.417,19.462,19.462,0,0,0,3.154-.01c.5-.045.991-.144,1.49-.165a7.292,7.292,0,0,1,1.559.109c.965.166,1.9.466,2.866.63a8.674,8.674,0,0,0,3.244-.062,13.34,13.34,0,0,0,5.947-2.741,7.31,7.31,0,0,0,1.736-2,7.5,7.5,0,0,0,.629-1.793,44.556,44.556,0,0,0,.785-4.94,23.868,23.868,0,0,1,.754-4.346A6.52,6.52,0,0,1,47.3,10.111a12.756,12.756,0,0,0,1.41-2.745c.541-1.467,1.019-3.485.154-4.929C48.171,1.286,46.626,1.053,45.411.9a30.166,30.166,0,0,0-5.02-.125q-.909.038-1.815.108A4.739,4.739,0,0,1,37.5.82C36.063.614,34.629.382,33.194.159A7.871,7.871,0,0,0,31.313.016a9.663,9.663,0,0,0-2.455.5c-2.384.867-4.726,1.871-7.056,2.87-1.214.521-2.43,1.045-3.613,1.631a7.767,7.767,0,0,0-.975.536,1.151,1.151,0,0,0-.23.2,6.78,6.78,0,0,0-.933,1.55,19.568,19.568,0,0,0-1.319,4.689A7.7,7.7,0,0,0,14.9,16.8c.486,1.067.773,2.236,1.173,3.338a21.847,21.847,0,0,0,.938,2.263,4.45,4.45,0,0,0,1.022,1.486,4.563,4.563,0,0,0,1.476.706,16.751,16.751,0,0,0,2.539.6,25.091,25.091,0,0,0,6.987.186,21.672,21.672,0,0,0,6.292-1.664A8.381,8.381,0,0,0,38.3,21.47c.455-.531.882-1.086,1.323-1.629.423-.52.893-1.007,1.306-1.534.134-.17.106-.459-.173-.331a3.522,3.522,0,0,0-.6.484,16.381,16.381,0,0,1-7.989,3.811,8.194,8.194,0,0,1-2.68-.1,16.878,16.878,0,0,1-2.682-.919c-1.777-.712-3.5-1.94-3.938-3.933a6.235,6.235,0,0,1,1.3-4.5,5.167,5.167,0,0,1,.521-.665c.063-.066.13-.126.2-.188.018-.016.182-.145.036-.084-.056.023-.006-.039-.05.074a5.625,5.625,0,0,0-.157.649,14.347,14.347,0,0,0-.3,1.442,5.665,5.665,0,0,0,.385,3.2,8.3,8.3,0,0,0,2.178,2.719,4.6,4.6,0,0,0,2.164,1.124,6.835,6.835,0,0,0,3.038,0c.262-.079.417-.181.426-.47.012-.385-.147-.759-.141-1.144a3.414,3.414,0,0,1,.506-1.256q.324-.66.691-1.3a26.861,26.861,0,0,1,2.153-3.109,4.561,4.561,0,0,0,1.224-2,1.6,1.6,0,0,0-.845-1.412,2.073,2.073,0,0,0-1.915.329,10.52,10.52,0,0,0-2.313,1.952,10.549,10.549,0,0,0-1.832,2.552,13.092,13.092,0,0,0-1.171,3.722c-.032.212.293.3.326.09a12.645,12.645,0,0,1,1.237-3.84,10.777,10.777,0,0,1,1.923-2.541,8.565,8.565,0,0,1,2.327-1.818,1.747,1.747,0,0,1,1.056-.219,1.271,1.271,0,0,1,.75.649c.38.654-.267,1.344-.648,1.836a28.7,28.7,0,0,0-3.5,5.452,2.107,2.107,0,0,0-.3.987,4.192,4.192,0,0,0,.068.525,1.43,1.43,0,0,1,.07.569c-.082.234-.874.231-1.109.241a9.027,9.027,0,0,1-1.738-.1,4.45,4.45,0,0,1-2.33-1.178,7.273,7.273,0,0,1-2.177-3,6.218,6.218,0,0,1-.025-3.286c.094-.43.227-.854.308-1.287a.464.464,0,0,0-.036-.385c-.454-.559-1.592,1.466-1.719,1.7a5.78,5.78,0,0,0-.836,4.281,6.1,6.1,0,0,0,3.528,3.689,12.337,12.337,0,0,0,5.058,1.344,11.818,11.818,0,0,0,4.742-1.164,20.317,20.317,0,0,0,3.6-2.143c.362-.266.717-.543,1.066-.826a1.632,1.632,0,0,0,.288-.234c.01-.015.046-.015.049-.037.008-.068-.235-.221-.211-.229-.07.022-.2.225-.242.278q-.441.5-.864,1.012c-.449.544-.881,1.1-1.331,1.645a8.429,8.429,0,0,1-2.767,2.287,20.028,20.028,0,0,1-5.983,1.724,24.559,24.559,0,0,1-7.073-.059,18.18,18.18,0,0,1-2.6-.572,5.076,5.076,0,0,1-1.555-.676A4,4,0,0,1,17.282,22.2a21.7,21.7,0,0,1-.916-2.229c-.389-1.079-.671-2.219-1.142-3.265a7.574,7.574,0,0,1-.142-4.749,18.471,18.471,0,0,1,1.316-4.6,3.687,3.687,0,0,1,1.091-1.582,11.147,11.147,0,0,1,1.04-.551c2.489-1.213,5.07-2.253,7.635-3.291C27.084,1.559,28,1.183,28.934.843a9.37,9.37,0,0,1,2.379-.49A7.879,7.879,0,0,1,33.2.5c1.393.216,2.785.44,4.181.642a4.716,4.716,0,0,0,1.045.091q.809-.064,1.62-.1a34.02,34.02,0,0,1,4.8.047c1.207.112,3,.249,3.709,1.4.908,1.465.284,3.6-.309,5.061a12.3,12.3,0,0,1-1.529,2.716,4.264,4.264,0,0,0-.778,1.373,24.771,24.771,0,0,0-.717,4.171,48.339,48.339,0,0,1-.76,4.879,7.821,7.821,0,0,1-.592,1.791,6.877,6.877,0,0,1-1.722,2,13.081,13.081,0,0,1-5.985,2.692,8.409,8.409,0,0,1-3.353-.066c-.91-.19-1.8-.464-2.724-.591a12.883,12.883,0,0,0-2.91.1,19.652,19.652,0,0,1-2.994,0,17.5,17.5,0,0,1-2.833-.409,4.856,4.856,0,0,1-1.857-.742c-.112-.086-.244.035-.254.146a19.947,19.947,0,0,0,.064,4.138,15.46,15.46,0,0,1-.454,5.065,23.085,23.085,0,0,1-1.615,4.4c-.348.774-.7,1.547-1.027,2.331a9.656,9.656,0,0,0-.745,2.229,7.41,7.41,0,0,0,1.089,4.688.17.17,0,0,0,.292,0,3.5,3.5,0,0,0,.259-1.517,11.969,11.969,0,0,0-.269-2.341,19.173,19.173,0,0,0-2.066-5.578A13.78,13.78,0,0,0,13,36.636a13.431,13.431,0,0,0-2.839-2.279c-1.109-.7-2.28-1.294-3.451-1.887A11.461,11.461,0,0,1,4.138,30.9a9.888,9.888,0,0,0-1.18-1.036,4.985,4.985,0,0,0-1.364-.619C1.3,29.159.246,28.851.029,29.25c-.1.192.093.3.233.379a6.288,6.288,0,0,1,.708.455,19.91,19.91,0,0,1,1.911,1.651A68.164,68.164,0,0,1,7.623,36.8q1.172,1.368,2.285,2.785a26.1,26.1,0,0,1,1.984,2.775,19.6,19.6,0,0,1,2.324,6.555,13.334,13.334,0,0,1-.028,5.857,4.336,4.336,0,0,1-.4.966c-.092.16.143.36.265.2a28.817,28.817,0,0,0,3.282-5.366,23.343,23.343,0,0,0,.94-2.251c.246-.692.414-1.405.638-2.1.11-.342.279-1.079.731-1.086.435-.006.856.192,1.3.18a4.889,4.889,0,0,0,2.52-.971,20.819,20.819,0,0,0,6.494-7.739c.7-1.347,1.3-2.75,2.026-4.084a8.492,8.492,0,0,1,2.588-3.086c.179-.121.01-.414-.17-.292" transform="translate(0 -0.001)" fill="#191919" stroke="#191919" stroke-width="0.5"/>
    </g>
  </g>
</svg>
