<svg xmlns="http://www.w3.org/2000/svg" width="34.442" height="44.994" viewBox="0 0 34.442 44.994">
  <g id="coctel-ico" transform="translate(-57.613 -2657.506)">
    <g id="Grupo_31" data-name="Grupo 31" transform="matrix(0.966, 0.259, -0.259, 0.966, 1339.829, 111.414)">
      <path id="Trazado_311" data-name="Trazado 311" d="M11.869,32.683V47.99A5.685,5.685,0,1,1,.5,47.99V32.683H6.362" transform="translate(-570 2759.753)" fill="none" stroke="#191919" stroke-width="1"/>
      <line id="Línea_1" data-name="Línea 1" y2="14.771" transform="translate(-563.815 2813.428)" fill="none" stroke="#191919" stroke-width="1"/>
      <line id="Línea_2" data-name="Línea 2" x2="11.369" transform="translate(-569.5 2828.199)" fill="none" stroke="#191919" stroke-width="1"/>
      <path id="Trazado_312" data-name="Trazado 312" d="M16.446,49.085a1.177,1.177,0,1,1-1.176-1.176A1.176,1.176,0,0,1,16.446,49.085Z" transform="translate(-580.084 2748.458)" fill="none" stroke="#191919" stroke-width="1"/>
      <path id="Trazado_313" data-name="Trazado 313" d="M31.422,28.742a1.177,1.177,0,1,1-1.176-1.176A1.176,1.176,0,0,1,31.422,28.742Z" transform="translate(-591.195 2763.55)" fill="none" stroke="#191919" stroke-width="1"/>
      <path id="Trazado_314" data-name="Trazado 314" d="M16.446,17.443a1.177,1.177,0,1,1-1.176-1.176A1.176,1.176,0,0,1,16.446,17.443Z" transform="translate(-580.084 2771.932)" fill="none" stroke="#191919" stroke-width="1"/>
    </g>
    <g id="Grupo_45" data-name="Grupo 45" transform="translate(649.686 -126.199)">
      <path id="Trazado_311-2" data-name="Trazado 311" d="M11.869,32.683V47.99A5.685,5.685,0,1,1,.5,47.99V32.683H6.362" transform="translate(-570 2759.753)" fill="none" stroke="#191919" stroke-width="1"/>
      <line id="Línea_1-2" data-name="Línea 1" y2="14.771" transform="translate(-563.815 2813.428)" fill="none" stroke="#191919" stroke-width="1"/>
      <line id="Línea_2-2" data-name="Línea 2" x2="11.369" transform="translate(-569.5 2828.199)" fill="none" stroke="#191919" stroke-width="1"/>
      <path id="Trazado_312-2" data-name="Trazado 312" d="M16.446,49.085a1.177,1.177,0,1,1-1.176-1.176A1.176,1.176,0,0,1,16.446,49.085Z" transform="translate(-580.084 2748.458)" fill="none" stroke="#191919" stroke-width="1"/>
      <path id="Trazado_313-2" data-name="Trazado 313" d="M31.422,28.742a1.177,1.177,0,1,1-1.176-1.176A1.176,1.176,0,0,1,31.422,28.742Z" transform="translate(-591.195 2763.55)" fill="none" stroke="#191919" stroke-width="1"/>
      <path id="Trazado_314-2" data-name="Trazado 314" d="M16.446,17.443a1.177,1.177,0,1,1-1.176-1.176A1.176,1.176,0,0,1,16.446,17.443Z" transform="translate(-580.084 2771.932)" fill="none" stroke="#191919" stroke-width="1"/>
    </g>
  </g>
</svg>
