<svg xmlns="http://www.w3.org/2000/svg" width="43.262" height="41" viewBox="0 0 43.262 41">
  <g id="tornaboda-ico" transform="translate(249.045 -2771.933)">
    <circle id="Elipse_11" data-name="Elipse 11" cx="18.207" cy="18.207" r="18.207" transform="translate(-245.824 2812.387) rotate(-89.929)" fill="none" stroke="#191919" stroke-width="1"/>
    <path id="Trazado_317" data-name="Trazado 317" d="M390.838,33.953c0,10.056-4.076,18.207-9.1,18.207s-9.1-8.152-9.1-18.207,4.076-18.207,9.1-18.207S390.838,23.9,390.838,33.953Z" transform="translate(-609.329 2760.249)" fill="none" stroke="#191919" stroke-width="1"/>
    <line id="Línea_6" data-name="Línea 6" y2="36.414" transform="translate(-227.594 2775.995)" fill="none" stroke="#191919" stroke-width="1"/>
    <path id="Trazado_318" data-name="Trazado 318" d="M390.838,33.953c0,10.056-4.076,18.207-9.1,18.207s-9.1-8.152-9.1-18.207,4.076-18.207,9.1-18.207S390.838,23.9,390.838,33.953Z" transform="translate(-609.329 2760.249)" fill="none" stroke="#191919" stroke-width="1"/>
    <line id="Línea_7" data-name="Línea 7" y2="39.977" transform="translate(-227.594 2772.432)" fill="none" stroke="#191919" stroke-width="1"/>
    <line id="Línea_8" data-name="Línea 8" x1="30.682" transform="translate(-242.898 2803.829)" fill="none" stroke="#191919" stroke-width="1"/>
    <line id="Línea_9" data-name="Línea 9" x1="36.414" transform="translate(-245.801 2794.98)" fill="none" stroke="#191919" stroke-width="1"/>
    <line id="Línea_10" data-name="Línea 10" x1="30.682" transform="translate(-242.898 2784.576)" fill="none" stroke="#191919" stroke-width="1"/>
    <line id="Línea_11" data-name="Línea 11" y2="2.949" transform="translate(-213.249 2775.512)" fill="none" stroke="#191919" stroke-width="1"/>
    <line id="Línea_12" data-name="Línea 12" x1="2.949" transform="translate(-214.724 2776.986)" fill="none" stroke="#191919" stroke-width="1"/>
    <line id="Línea_13" data-name="Línea 13" y2="2.949" transform="translate(-244.327 2807.909)" fill="none" stroke="#191919" stroke-width="1"/>
    <line id="Línea_14" data-name="Línea 14" x1="2.949" transform="translate(-245.801 2809.383)" fill="none" stroke="#191919" stroke-width="1"/>
    <line id="Línea_15" data-name="Línea 15" x1="2.085" y2="2.085" transform="translate(-248.691 2804.822)" fill="none" stroke="#191919" stroke-width="1"/>
    <line id="Línea_16" data-name="Línea 16" x1="2.085" y1="2.085" transform="translate(-248.691 2804.822)" fill="none" stroke="#191919" stroke-width="1"/>
    <line id="Línea_17" data-name="Línea 17" x1="2.085" y2="2.085" transform="translate(-208.221 2802.786)" fill="none" stroke="#191919" stroke-width="1"/>
    <line id="Línea_18" data-name="Línea 18" x1="2.085" y1="2.085" transform="translate(-208.221 2802.786)" fill="none" stroke="#191919" stroke-width="1"/>
    <line id="Línea_19" data-name="Línea 19" x1="2.085" y2="2.085" transform="translate(-247.649 2782.739)" fill="none" stroke="#191919" stroke-width="1"/>
    <line id="Línea_20" data-name="Línea 20" x1="2.085" y1="2.085" transform="translate(-247.649 2782.739)" fill="none" stroke="#191919" stroke-width="1"/>
    <line id="Línea_21" data-name="Línea 21" x1="2.085" y2="2.085" transform="translate(-211.472 2779.628)" fill="none" stroke="#191919" stroke-width="1"/>
    <line id="Línea_22" data-name="Línea 22" x1="2.085" y1="2.085" transform="translate(-211.472 2779.628)" fill="none" stroke="#191919" stroke-width="1"/>
    <line id="Línea_23" data-name="Línea 23" x2="4.839" transform="translate(-230.058 2772.432)" fill="none" stroke="#191919" stroke-width="1"/>
  </g>
</svg>
